<?xml version="1.0" encoding="UTF-8"?>
<!DOCTYPE svg  PUBLIC '-//W3C//DTD SVG 20010904//EN'  'http://www.w3.org/TR/2001/REC-SVG-20010904/DTD/svg10.dtd'>
<svg width="880pt" height="931pt" version="1.0" viewBox="0 0 880 931" xmlns="http://www.w3.org/2000/svg">
<g transform="translate(0 931) scale(.1 -.1)">
<path d="m4285 8896c-142-35-21 79-1976-1874-1409-1407-1815-1818-1843-1865-147-249-30-583 241-688 123-47 284-36 408 29 38 20 432 407 1665 1638l1615 1612 1605-1599c883-880 1625-1614 1649-1631 178-125 444-98 601 61 150 152 183 371 84 561-30 58-225 256-1846 1876-1706 1705-1817 1814-1878 1842-111 51-220 64-325 38z"/>
<path d="m4265 5266c-126-41-58 24-1962-1879-1936-1935-1852-1847-1888-1982-85-328 211-645 545-586 160 29 55-68 1687 1560 813 811 1540 1535 1616 1610l137 136 1618-1616c1245-1244 1629-1621 1668-1642 61-32 161-57 229-57 168 0 349 112 423 262 38 78 52 134 52 218 0 83-14 139-52 220-29 61-153 187-1841 1870-995 993-1824 1814-1841 1826-76 50-137 68-246 71-68 2-119-2-145-11z"/>
</g>
</svg>
