<?xml version="1.0" encoding="UTF-8"?>
<!DOCTYPE svg  PUBLIC '-//W3C//DTD SVG 20010904//EN'  'http://www.w3.org/TR/2001/REC-SVG-20010904/DTD/svg10.dtd'>
<svg width="512pt" height="512pt" version="1.0" viewBox="0 0 512 512" xmlns="http://www.w3.org/2000/svg">
<g transform="translate(0 512) scale(.1 -.1)">
<path d="m638 5110c-168-29-292-93-413-215-103-102-158-194-197-331l-23-79v-1925-1925l23-79c40-137 94-229 197-331 102-102 196-158 330-197l80-23h1925 1925l79 23c137 40 229 94 331 197 102 102 158 196 197 330l23 80v1925 1925l-23 79c-39 137-94 229-197 331-100 100-190 155-325 197l-75 23-1905 1c-1048 1-1926-2-1952-6zm3782-511c66-14 127-62 159-124l26-49v-1866-1866l-26-49c-32-62-93-110-159-124-72-15-3648-15-3720 0-66 14-127 62-159 124l-26 49v1866 1866l25 48c31 61 85 105 147 122 64 17 3653 20 3733 3z"/>
<path d="m1200 3915-175-175 1180-1180-1180-1180 178-177 177-178 1180 1180 1180-1180 177 178 178 177-1180 1180 1180 1180-178 177-177 178-1180-1180-588 588c-323 323-589 587-592 587s-84-79-180-175z"/>
</g>
</svg>
