<?xml version="1.0" encoding="UTF-8"?>
<!DOCTYPE svg  PUBLIC '-//W3C//DTD SVG 20010904//EN'  'http://www.w3.org/TR/2001/REC-SVG-20010904/DTD/svg10.dtd'>
<svg width="168pt" height="164pt" version="1.0" viewBox="0 0 168 164" xmlns="http://www.w3.org/2000/svg">
<g transform="translate(0 164) scale(.1 -.1)">
<path d="m728 1560c-239-43-435-194-540-416-43-92-47-114-19-114 13 0 24 16 40 58 45 124 140 243 257 321 210 141 456 156 690 41 143-70 281-222 329-362 16-48 23-58 42-58h23l-24 65c-36 101-84 173-171 260-89 89-195 152-313 186-76 22-243 32-314 19z"/>
<path d="m689 1495c-209-51-393-213-469-414-15-37-17-51-7-51 7 0 20 22 30 50 25 69 109 191 167 242 206 180 484 218 726 99 135-67 249-189 309-331 21-51 32-66 41-58 3 3-5 30-17 60-83 196-248 342-449 397-88 25-243 27-331 6z"/>
<path d="m970 1385c0-9-9-24-21-34-20-16-24-16-76 11-65 33-113 36-137 10-15-18-15-21 6-48 33-43 39-45 90-41 26 2 45 0 42-5-3-4-13-8-23-8-27 0-71-52-71-84v-28l31 26c17 14 35 26 41 26s20 7 30 17c10 9 18 11 18 5 0-5-20-20-44-32-56-27-75-48-55-61 35-22 90 9 116 65l14 31-6-37c-6-41 6-72 39-100 64-53 92 36 42 135l-24 49 21 24c11 13 24 21 29 18 4-3 8-1 8 4s-14 12-31 16c-24 5-29 10-24 25 3 11 1 22-5 26-5 3-10-1-10-10zm-105-36c25-12 43-25 40-29-9-15-95-31-113-21-28 15-55 49-47 60 10 18 72 12 120-10zm90-69c0-20-5-25-25-25s-26 6-28 28c-3 26-1 28 25 25 22-2 28-8 28-28zm38-57c24-57 29-81 22-103-8-26-23-25-52 2-25 24-29 58-12 107 14 40 22 39 42-6z"/>
<path d="m760 1146c0-8-3-21-6-29-4-11 1-13 20-10 29 6 31 11 12 36-16 21-26 22-26 3z"/>
<path d="m127 984c-4-4-7-67-7-140 0-96 3-133 13-136 28-11 37 4 37 63v59h70 70v-60c0-58 1-60 25-60h26l-3 138c-3 129-4 137-23 137-17 0-20-8-23-52l-3-53h-69-69l-3 52c-2 38-7 54-18 56-9 1-19 0-23-4z"/>
<path d="m410 850v-141l103 3c83 2 102 6 102 18s-18 16-79 20l-79 5-1 38-1 37h63c60 0 62 1 62 25s-2 25-62 25h-63v30 30h78c76 0 77 0 77 25v25h-100-100v-140z"/>
<path d="m657 983c-4-3-7-66-7-140v-134l103 3c83 2 102 6 102 18s-17 16-77 18l-78 3v39 40h60c57 0 60 1 60 25s-3 25-60 25h-60v30 30h75c73 0 75 1 75 25 0 25 0 25-93 25-52 0-97-3-100-7z"/>
<path d="m900 845v-135h71c65 0 73 2 101 30 24 25 29 36 23 58-3 15-14 35-23 45-12 13-13 20-4 29 19 19 14 66-8 88-16 16-33 20-90 20h-70v-135zm144 99c41-40 1-84-76-84h-48v50 50h54c36 0 60-5 70-16zm10-120c19-18 21-55 4-72-7-7-39-12-75-12h-63v50 50h59c41 0 65-5 75-16z"/>
<path d="m1140 845v-135h95c79 0 95 3 95 16s-13 15-81 13l-81-2-2 51-1 52h68c51 0 68 3 64 13-2 8-26 12-67 13l-63 1v44 44l81 3c115 4 104 22-13 22h-95v-135z"/>
<path d="m1370 845v-136l95 3c119 4 131 22 18 26l-83 3v49 50h65c51 0 65 3 65 15s-14 15-65 15h-65v45 45h80c47 0 80 4 80 10s-38 10-95 10h-95v-135z"/>
<path d="m161 604c88-258 328-449 608-485 314-40 633 155 755 463 31 80 31 78 5 78-13 0-23-8-27-22-3-13-25-61-48-108-79-155-208-269-376-332-107-40-264-50-381-24-225 50-420 221-493 434-15 42-23 52-41 52h-22l20-56z"/>
<path d="m205 638c16-52 78-167 120-220 56-70 147-140 240-185 260-124 583-57 781 160 50 56 144 221 144 255 0 21-22 13-28-10-13-53-85-177-132-230-69-77-177-148-280-182-72-25-101-29-195-29-128-1-206 17-305 69-147 77-253 197-314 357-16 40-42 53-31 15z"/>
<path d="m410 568c-26-28-25-34 5-63 28-29 38-31 55-11 10 13 7 15-15 13-31-2-52 21-42 47 4 10 18 16 39 16 25 0 29 3 18 10-23 15-37 12-60-12z"/>
<path d="m580 570c-30-30-25-57 16-78 47-25 86 45 46 81-24 22-38 21-62-3zm67-16c9-24-10-49-38-49-24 0-36 23-25 51 7 19 55 18 63-2z"/>
<path d="m757 583c-11-11-8-93 3-93 6 0 10 8 8 17-2 11 6 19 22 23l25 7-24 4c-37 6-39 29-2 29 17 0 31 5 31 10 0 11-53 14-63 3z"/>
<path d="m917 583c-4-3-6-27-6-52 1-25 4-36 6-24 2 13 13 24 26 26l22 4-22 2c-36 2-29 31 8 31 17 0 28 4 24 10-7 11-48 14-58 3z"/>
<path d="m1068 578c-3-7-4-29-3-48 1-33 3-35 35-36 27-1 28-1 8 3-32 5-38 33-8 33 11 0 20 5 20 11s-9 9-20 6c-13-3-20 0-20 9 0 8 10 14 25 14 14 0 25 5 25 10 0 15-57 12-62-2z"/>
<path d="m1227 583c-12-12-8-91 6-95 6-3 23-1 37 3l25 7-27 1c-32 1-40 31-8 31 11 0 20 5 20 11s-9 9-20 6c-13-3-20 0-20 9 0 8 10 14 25 14 14 0 25 5 25 10 0 11-53 14-63 3z"/>
</g>
</svg>
