<?xml version="1.0" encoding="UTF-8"?>
<!DOCTYPE svg  PUBLIC '-//W3C//DTD SVG 20010904//EN'  'http://www.w3.org/TR/2001/REC-SVG-20010904/DTD/svg10.dtd'>
<svg width="512pt" height="512pt" version="1.0" viewBox="0 0 512 512" xmlns="http://www.w3.org/2000/svg">
<g transform="translate(0 512) scale(.1 -.1)">
<path d="m125 4393c-164-86-166-300-3-384 36-19 95-19 2435-19 2313 0 2399 1 2438 19 164 76 166 298 3 382-36 19-95 19-2440 19-2169-1-2406-2-2433-17z"/>
<path d="m149 2766c-60-21-100-56-125-110-52-112-10-231 100-282l51-24h2385 2385l51 24c113 52 154 174 96 287-29 57-70 92-131 109-24 6-848 10-2406 10-1911-1-2377-3-2406-14z"/>
<path d="m125 1121c-104-47-153-174-106-276 19-43 78-100 118-116 33-12 4813-12 4846 0 40 16 99 73 118 116 47 102-2 229-106 276-38 18-140 19-2435 19s-2397-1-2435-19z"/>
</g>
</svg>
